<?xml version="1.0" encoding="UTF-8"?>
<svg id="Layer_1" xmlns="http://www.w3.org/2000/svg" version="1.1" viewBox="0 0 1000 1000">
  <!-- Generator: Adobe Illustrator 29.4.0, SVG Export Plug-In . SVG Version: 2.1.0 Build 152)  -->
  <defs>
    <style>
      .st0 {
        fill: #0287bc;
      }
    </style>
  </defs>
  <path class="st0" d="M178,221.8c.5,0,1.6,0,2.2,0,3.2,14.4,10.8,29.5,25,35.6,8.2,3.5,16.2,7.2,23.9,11.7,13.5,6.1,21.6,20.6,22.2,35.1.5,7.3-1.2,14.6-2.3,21.8,17.3,8.9,32.1,23.2,40.1,41,8.6,17.6,11.8,38.9,4.6,57.6-3.1,9.2-10.6,15.9-17,22.8-3.6,3.9-2.3,9.6-3.4,14.4-2.1,15.4-13.6,28.4-13.3,44.2,2,6.9,5.8,14.9,13.6,16.6,30.8,9.7,62.5,27.2,76.1,58.2,7.5,14.5,6.6,31.1,5.8,46.8,4.9,1.1,9.9.6,14.8,1.1,3.1,13.5,3.4,27.9,1.2,41.6-36.8.4-72.5,12.6-104.8,29.5-17.9,8.8-30.6,24.8-42.4,40.3-8.2,11-13.2,25.1-25.2,32.8-13,9.6-33.1,5.4-43-6.6,9.2-2.9,22.3-6.8,21.1-19.1-7.7-13-17.2-25.2-28.8-35-10.3-10-23.9-15.3-36.6-21.6-22.4-9.4-45.9-17.2-70.2-19.5-5.3-1.1-10.8,0-15.9-1.8-1.9-13-1.3-26.3,0-39.4,4.2-3.3,10.7-.7,15.8-1.7.1-10.3-.7-20.7.7-31,2.8-12,7.7-23.8,15.6-33.4,15.8-20.4,39.7-32.8,63.9-40.3,11.2-2.1,18.4-15.7,14.6-26.2-3.1-11.7-9.8-22.1-12.1-34-1.6-5.9-.1-13.1-5.1-17.6-16.1-15.9-22.9-40.6-17.2-62.5,5.5-25.5,25.1-46.2,48.4-57,14-6,27.3-13.6,38.9-23.5,2.1-1.9,4.3-4,4.5-7-31.4-7.5-39.2-53.8-15.5-73.8ZM209.9,298.7c-11,14.3-25.2,26.5-42,33.3-12.9,5-26.1,11.1-34.9,22.2-17.3,18.9-26.3,50.2-9.6,72.3.9,0,1.8-.2,2.7-.3,6.7-22.5,25-39.8,46.1-48.9,21.9-8.1,43.5-20.9,54.9-42,3-8.6,4-18.6.5-27.2-4.2-5.1-10.4-11.8-17.7-9.5ZM241.2,342.9c-7.5,10.9-15.4,21.8-26.6,29.3,0,.5.2,1.6.3,2.2,26.6,6.7,49.6,27.5,57.1,54.2.5,0,1.6,0,2.1,0,9-9.3,9.4-23.3,8.2-35.4-3.4-20.7-15.9-40.2-34.2-50.7-2.1-1.2-5.5-2.4-6.9.5ZM154.2,406.6c-19.3,19.7-22.1,52.6-6.9,75.5,8.1,11,15.2,23,18.4,36.4,1.5,5.8,1.9,11.9,4.1,17.5,6.2,2.4,13.4-1.3,19.9,1.2.6-.4,1.8-1.1,2.4-1.5,0-11.7,0-23.5-.2-35.2-2-3.1-6.3-4.1-8.8-6.9-5.8-4.9-6.1-13.5-4.3-20.3,3.9-11.7,19-17.2,29.7-11.5,6.6,3.8,11.7,11.1,10.9,18.9.4,8.8-6.9,15.6-14.2,19.2.1,12,0,24.1,0,36.1,4.3,2.1,9-.1,13.5.6,3,.2,6.3,1,9-.7,2.6-9.1,3.3-18.7,6.9-27.5,3.5-11.2,11.6-20,17.3-30,13.5-23.1,9-54.9-10.6-73.1-22.5-24.1-65-23-87,1.3ZM196.4,469.4c-7.8.6-12.3,10.8-7,16.8,5.5,8.4,21.6,3.9,20.3-6.6.5-6.9-7-11.5-13.3-10.2ZM72.3,577.4c-6.8,9.1-11.5,20.2-11.8,31.7,22.8-3.7,46.1,1,67.3,9.6,28.7,12.1,55.3,32.3,69.9,60.3,2,1,2.6-1.6,3.6-2.7,15.4-28.3,43.2-48,72.8-59.6,19.9-6.9,41.3-11.5,62.4-7.5-.2-12.2-5.6-24-13.1-33.4-20.7-21.6-47.8-37.6-77.5-42.3-2,7.7,0,15.7-1.2,23.5-1.6,1.2-3.8.6-5.6.8-28.8-.4-57.7.5-86.5-.3-.3-7.9,0-15.8-.1-23.8-30.9,3.7-59.1,21.2-80.1,43.7ZM227.2,673.1c-10.7,10.9-18.1,24.2-27.4,36.2-.6,0-1.7,0-2.2,0-10-13-18.5-27.1-30.1-38.8-21.6-24-52.5-41.6-85.5-41.1-6.7.2-13.7-.6-19.8,2.7.2,6.7.5,13.5,2.1,20.1,38.7-1.2,77.8,12.9,107.2,38,11.1,8.9,17.5,21.9,26.7,32.4,6.1-4.5,8.9-11.7,13.6-17.4,28.7-35.7,75.7-53.4,120.8-53.3,3.1-5.9,1.4-13.6,1.8-20.2-5.3-2.5-11.2-2-16.9-2.7-34.8-.1-68.1,18-90.3,44.2Z"/>
  <path class="st0" d="M451.9,495.6c3.7-3.9,9.7-7.6,15.1-5.4,11.3,7.8,16.1,21.3,21.9,33,6.2,11.9,11.2,24.5,14.4,37.5,1,0,2,0,3,.1,6.8-18.6,14.4-37,24.7-54,4.6-6.3,9.3-13.3,16.6-16.8,8.4-2.1,16.6,3.5,20.9,10.5,10.2,16.9,12.3,36.9,15.2,56,3.3,32.1,3.9,64.8-2.3,96.6-1.7,7.1-5.7,16.3-14.4,16.2-5.2-3.3-6.6-9.7-8.7-15-8.9-28.3-11.7-58.2-14.9-87.6-.4-2.5-.5-5.2-2.5-7.1-4.4,29-10,58.2-21.1,85.5-2.4,6.2-6.3,11.6-11.5,15.7-9.2.4-13.2-9.8-16.4-16.8-10-25.5-16.6-52.2-22-79.1-.5,0-1.6,0-2.2,0-1,30,.3,60.9-10.6,89.5-2.3,6.1-7.5,13.2-15,10.4-6.3-4.6-8.6-12.9-10.9-20-7.1-36.4-6.1-74.4,2.4-110.5,3.8-13.8,8.1-28.3,18.4-38.7Z"/>
  <path class="st0" d="M830,498.4c5.5-8.4,20.1-11.5,26.8-3.2,3.2,12.9-14.7,22.4-24.7,15-3.6-2.8-1.8-7.9-2.1-11.8Z"/>
  <path class="st0" d="M733.7,534.3c11.9-11.6,30.9-14.6,46.1-8.3,14.6,6.1,24.6,22.8,21.5,38.5-1.9,21-19.7,37.4-38.8,43.9-5.3,2.3-11.3,2.1-16.6,4.1,0,7.6,7.6,13.2,14.7,13.4,10.3,1.6,19-5.3,27-10.8,6-4,15.5-5.6,20.3,1,4,7.5-.3,15.9-4.8,22-5.8,9.3-15.4,15.1-24.8,20.3-13.3,7.1-30.7,6.2-42.7-3.2-22-16.5-29.8-46.9-25-73.1,3.3-17.5,9.8-35.5,23.2-47.9ZM758.1,554.6c-9,5.3-14,16.2-13.1,26.5,10.5.7,21.8-4.3,27.6-13.2.9-3.6,1.3-8-.9-11.2-3.1-4.1-9.4-4.5-13.6-2Z"/>
  <path class="st0" d="M884.9,529.6c4.5-4.2,13.3-5.6,17.3,0,3.7,4.3,5.7,9.9,7.9,15.1.5,0,1.4.1,1.8.1,10-14.3,29.8-20.6,45.7-12.9,11.4,5.2,16.1,18.3,17.5,29.9,1.2,22.4,1.1,45.2-4.8,67.1-3.5,13.5-7.5,28.1-18.2,37.8-2.4,2.4-5.8,2.9-9,2.9-3.3-3-7-6.1-7.6-10.8-5.4-27.2,5.4-54.1,3.2-81.4,0-3.6-1.3-7.2-3.2-10.2-2.7-3.9-9.1-3.7-11.8,0-7,9.8-11.7,21.6-10.6,33.9-.7,18.6,3.3,38.7-6.2,55.8-3.5,7-14.6,11.5-20.3,4.5-8.7-10-6.9-24.3-8.9-36.6,0-23.3-.4-46.6-.1-69.9.6-8.7,1.1-18.5,7.4-25.2Z"/>
  <path class="st0" d="M643.9,528.8c12.9-3.3,27.1,1.2,36.1,11,7.2,8.5,12.4,18.7,15.8,29.2,7.1,28.6,2,60.4-14.8,84.7-11,13.5-31.7,20.3-47.9,12.5-8.8-3.5-14.1-11.8-19.9-18.9-15.7-26.9-15.7-61.1-3.1-89.3,7-13.6,17.8-26.8,33.8-29.3ZM649.1,562.8c-11.9,7.2-14,23.3-13.7,36.1,1,11.6.5,24.5,8.4,34,2.4,3.4,6.7,5.1,10.7,4,7.1-4.4,9.4-13.1,10.5-20.9,2.4-15.8,2.9-33.1-5.3-47.4-2-3.9-6-7.2-10.6-5.8Z"/>
  <path class="st0" d="M841.7,529.5c4.6-.5,9.1,2.3,11.1,6.4,7.3,14.5,6.5,31.1,7.2,46.9-1.3,21.8,0,44.1-6.1,65.2-2.1,6.5-6.2,13.9-13.7,14.8-6,.8-10.1-4.9-12.1-9.8-6.4-15.8-4.8-33.2-6.6-49.9.2-10.8-.8-21.8,1.5-32.4,1.5-11.9,2.3-24.5,9.3-34.7,2.5-2.9,5.4-6.3,9.5-6.6Z"/>
  <path class="st0" d="M165.6,565.1c23.6-.3,47.2.2,70.8,0,1.7,13.7-6.9,27.8-19.2,33.6-16.5,9-40,2.6-48.9-14.1-2.8-5.7-6.4-13.8-2.7-19.5Z"/>
</svg>