<?xml version="1.0" encoding="UTF-8"?>
<svg id="Layer_1" xmlns="http://www.w3.org/2000/svg" baseProfile="tiny" version="1.2" viewBox="0 0 1280 800">
  <!-- Generator: Adobe Illustrator 29.4.0, SVG Export Plug-In . SVG Version: 2.1.0 Build 152)  -->
  <rect width="1280" height="800" fill="#0a0617"/>
  <g>
    <line y1="1.4" x2="1280" y2="1.4" fill="none" stroke="#0c0819" stroke-miterlimit="10" stroke-width="3.2"/>
    <line y1="788.3" x2="1280" y2="788.3" fill="none" stroke="#0c0819" stroke-miterlimit="10" stroke-width="3.2"/>
    <line y1="11.8" x2="1280" y2="11.8" fill="none" stroke="#0c0819" stroke-miterlimit="10" stroke-width="3.2"/>
    <line y1="22.3" x2="1280" y2="22.3" fill="none" stroke="#0c0819" stroke-miterlimit="10" stroke-width="3.2"/>
    <line y1="32.8" x2="1280" y2="32.8" fill="none" stroke="#0c0819" stroke-miterlimit="10" stroke-width="3.2"/>
    <line y1="43.3" x2="1280" y2="43.3" fill="none" stroke="#0c0819" stroke-miterlimit="10" stroke-width="3.2"/>
    <line y1="53.8" x2="1280" y2="53.8" fill="none" stroke="#0c0819" stroke-miterlimit="10" stroke-width="3.2"/>
    <line y1="64.3" x2="1280" y2="64.3" fill="none" stroke="#0c0819" stroke-miterlimit="10" stroke-width="3.2"/>
    <line y1="74.8" x2="1280" y2="74.8" fill="none" stroke="#0c0819" stroke-miterlimit="10" stroke-width="3.2"/>
    <line y1="85.3" x2="1280" y2="85.3" fill="none" stroke="#0c0819" stroke-miterlimit="10" stroke-width="3.2"/>
    <line y1="95.8" x2="1280" y2="95.8" fill="none" stroke="#0c0819" stroke-miterlimit="10" stroke-width="3.2"/>
    <line y1="106.3" x2="1280" y2="106.3" fill="none" stroke="#0c0819" stroke-miterlimit="10" stroke-width="3.2"/>
    <line y1="116.8" x2="1280" y2="116.8" fill="none" stroke="#0c0819" stroke-miterlimit="10" stroke-width="3.2"/>
    <line y1="127.3" x2="1280" y2="127.3" fill="none" stroke="#0c0819" stroke-miterlimit="10" stroke-width="3.2"/>
    <line y1="137.8" x2="1280" y2="137.8" fill="none" stroke="#0c0819" stroke-miterlimit="10" stroke-width="3.2"/>
    <line y1="148.3" x2="1280" y2="148.3" fill="none" stroke="#0c0819" stroke-miterlimit="10" stroke-width="3.2"/>
    <line y1="158.7" x2="1280" y2="158.7" fill="none" stroke="#0c0819" stroke-miterlimit="10" stroke-width="3.2"/>
    <line y1="169.2" x2="1280" y2="169.2" fill="none" stroke="#0c0819" stroke-miterlimit="10" stroke-width="3.2"/>
    <line y1="179.7" x2="1280" y2="179.7" fill="none" stroke="#0c0819" stroke-miterlimit="10" stroke-width="3.2"/>
    <line y1="190.2" x2="1280" y2="190.2" fill="none" stroke="#0c0819" stroke-miterlimit="10" stroke-width="3.2"/>
    <line y1="200.7" x2="1280" y2="200.7" fill="none" stroke="#0c0819" stroke-miterlimit="10" stroke-width="3.2"/>
    <line y1="211.2" x2="1280" y2="211.2" fill="none" stroke="#0c0819" stroke-miterlimit="10" stroke-width="3.2"/>
    <line y1="221.7" x2="1280" y2="221.7" fill="none" stroke="#0c0819" stroke-miterlimit="10" stroke-width="3.2"/>
    <line y1="232.2" x2="1280" y2="232.2" fill="none" stroke="#0c0819" stroke-miterlimit="10" stroke-width="3.2"/>
    <line y1="242.7" x2="1280" y2="242.7" fill="none" stroke="#0c0819" stroke-miterlimit="10" stroke-width="3.2"/>
    <line y1="253.2" x2="1280" y2="253.2" fill="none" stroke="#0c0819" stroke-miterlimit="10" stroke-width="3.2"/>
    <line y1="263.7" x2="1280" y2="263.7" fill="none" stroke="#0c0819" stroke-miterlimit="10" stroke-width="3.2"/>
    <line y1="274.2" x2="1280" y2="274.2" fill="none" stroke="#0c0819" stroke-miterlimit="10" stroke-width="3.2"/>
    <line y1="284.7" x2="1280" y2="284.7" fill="none" stroke="#0c0819" stroke-miterlimit="10" stroke-width="3.2"/>
    <line y1="295.2" x2="1280" y2="295.2" fill="none" stroke="#0c0819" stroke-miterlimit="10" stroke-width="3.2"/>
    <line y1="305.6" x2="1280" y2="305.6" fill="none" stroke="#0c0819" stroke-miterlimit="10" stroke-width="3.2"/>
    <line y1="316.1" x2="1280" y2="316.1" fill="none" stroke="#0c0819" stroke-miterlimit="10" stroke-width="3.2"/>
    <line y1="326.6" x2="1280" y2="326.6" fill="none" stroke="#0c0819" stroke-miterlimit="10" stroke-width="3.2"/>
    <line y1="337.1" x2="1280" y2="337.1" fill="none" stroke="#0c0819" stroke-miterlimit="10" stroke-width="3.2"/>
    <line y1="347.6" x2="1280" y2="347.6" fill="none" stroke="#0c0819" stroke-miterlimit="10" stroke-width="3.2"/>
    <line y1="358.1" x2="1280" y2="358.1" fill="none" stroke="#0c0819" stroke-miterlimit="10" stroke-width="3.2"/>
    <line y1="368.6" x2="1280" y2="368.6" fill="none" stroke="#0c0819" stroke-miterlimit="10" stroke-width="3.2"/>
    <line y1="379.1" x2="1280" y2="379.1" fill="none" stroke="#0c0819" stroke-miterlimit="10" stroke-width="3.2"/>
    <line y1="389.6" x2="1280" y2="389.6" fill="none" stroke="#0c0819" stroke-miterlimit="10" stroke-width="3.2"/>
    <line y1="400.1" x2="1280" y2="400.1" fill="none" stroke="#0c0819" stroke-miterlimit="10" stroke-width="3.2"/>
    <line y1="410.6" x2="1280" y2="410.6" fill="none" stroke="#0c0819" stroke-miterlimit="10" stroke-width="3.2"/>
    <line y1="421.1" x2="1280" y2="421.1" fill="none" stroke="#0c0819" stroke-miterlimit="10" stroke-width="3.2"/>
    <line y1="431.6" x2="1280" y2="431.6" fill="none" stroke="#0c0819" stroke-miterlimit="10" stroke-width="3.2"/>
    <line y1="442" x2="1280" y2="442" fill="none" stroke="#0c0819" stroke-miterlimit="10" stroke-width="3.2"/>
    <line y1="452.5" x2="1280" y2="452.5" fill="none" stroke="#0c0819" stroke-miterlimit="10" stroke-width="3.2"/>
    <line y1="463" x2="1280" y2="463" fill="none" stroke="#0c0819" stroke-miterlimit="10" stroke-width="3.2"/>
    <line y1="473.5" x2="1280" y2="473.5" fill="none" stroke="#0c0819" stroke-miterlimit="10" stroke-width="3.2"/>
    <line y1="484" x2="1280" y2="484" fill="none" stroke="#0c0819" stroke-miterlimit="10" stroke-width="3.2"/>
    <line y1="494.5" x2="1280" y2="494.5" fill="none" stroke="#0c0819" stroke-miterlimit="10" stroke-width="3.2"/>
    <line y1="505" x2="1280" y2="505" fill="none" stroke="#0c0819" stroke-miterlimit="10" stroke-width="3.2"/>
    <line y1="515.5" x2="1280" y2="515.5" fill="none" stroke="#0c0819" stroke-miterlimit="10" stroke-width="3.2"/>
    <line y1="526" x2="1280" y2="526" fill="none" stroke="#0c0819" stroke-miterlimit="10" stroke-width="3.2"/>
    <line y1="536.5" x2="1280" y2="536.5" fill="none" stroke="#0c0819" stroke-miterlimit="10" stroke-width="3.2"/>
    <line y1="547" x2="1280" y2="547" fill="none" stroke="#0c0819" stroke-miterlimit="10" stroke-width="3.2"/>
    <line y1="557.5" x2="1280" y2="557.5" fill="none" stroke="#0c0819" stroke-miterlimit="10" stroke-width="3.2"/>
    <line y1="568" x2="1280" y2="568" fill="none" stroke="#0c0819" stroke-miterlimit="10" stroke-width="3.2"/>
    <line y1="578.5" x2="1280" y2="578.5" fill="none" stroke="#0c0819" stroke-miterlimit="10" stroke-width="3.2"/>
    <line y1="588.9" x2="1280" y2="588.9" fill="none" stroke="#0c0819" stroke-miterlimit="10" stroke-width="3.2"/>
    <line y1="599.4" x2="1280" y2="599.4" fill="none" stroke="#0c0819" stroke-miterlimit="10" stroke-width="3.2"/>
    <line y1="609.9" x2="1280" y2="609.9" fill="none" stroke="#0c0819" stroke-miterlimit="10" stroke-width="3.2"/>
    <line y1="620.4" x2="1280" y2="620.4" fill="none" stroke="#0c0819" stroke-miterlimit="10" stroke-width="3.2"/>
    <line y1="630.9" x2="1280" y2="630.9" fill="none" stroke="#0c0819" stroke-miterlimit="10" stroke-width="3.2"/>
    <line y1="641.4" x2="1280" y2="641.4" fill="none" stroke="#0c0819" stroke-miterlimit="10" stroke-width="3.2"/>
    <line y1="651.9" x2="1280" y2="651.9" fill="none" stroke="#0c0819" stroke-miterlimit="10" stroke-width="3.2"/>
    <line y1="662.4" x2="1280" y2="662.4" fill="none" stroke="#0c0819" stroke-miterlimit="10" stroke-width="3.2"/>
    <line y1="672.9" x2="1280" y2="672.9" fill="none" stroke="#0c0819" stroke-miterlimit="10" stroke-width="3.2"/>
    <line y1="683.4" x2="1280" y2="683.4" fill="none" stroke="#0c0819" stroke-miterlimit="10" stroke-width="3.2"/>
    <line y1="693.9" x2="1280" y2="693.9" fill="none" stroke="#0c0819" stroke-miterlimit="10" stroke-width="3.2"/>
    <line y1="704.4" x2="1280" y2="704.4" fill="none" stroke="#0c0819" stroke-miterlimit="10" stroke-width="3.2"/>
    <line y1="714.9" x2="1280" y2="714.9" fill="none" stroke="#0c0819" stroke-miterlimit="10" stroke-width="3.2"/>
    <line y1="725.4" x2="1280" y2="725.4" fill="none" stroke="#0c0819" stroke-miterlimit="10" stroke-width="3.2"/>
    <line y1="735.8" x2="1280" y2="735.8" fill="none" stroke="#0c0819" stroke-miterlimit="10" stroke-width="3.2"/>
    <line y1="746.3" x2="1280" y2="746.3" fill="none" stroke="#0c0819" stroke-miterlimit="10" stroke-width="3.2"/>
    <line y1="756.8" x2="1280" y2="756.8" fill="none" stroke="#0c0819" stroke-miterlimit="10" stroke-width="3.2"/>
    <line y1="767.3" x2="1280" y2="767.3" fill="none" stroke="#0c0819" stroke-miterlimit="10" stroke-width="3.2"/>
    <line y1="777.8" x2="1280" y2="777.8" fill="none" stroke="#0c0819" stroke-miterlimit="10" stroke-width="3.2"/>
  </g>
</svg>